<mxfile host="app.diagrams.net" agent="Mozilla/5.0 (Windows NT 10.0; Win64; x64; rv:134.0) Gecko/20100101 Firefox/134.0" version="26.0.9">
  <diagram name="Pagina-1" id="24wl4rJfPtHlZv77M8ec">
    <mxGraphModel dx="1050" dy="2486" grid="1" gridSize="10" guides="1" tooltips="1" connect="1" arrows="1" fold="1" page="1" pageScale="1" pageWidth="1200" pageHeight="1920" math="0" shadow="0">
      <root>
        <mxCell id="0" />
        <mxCell id="1" parent="0" />
        <mxCell id="QwmscEO_Eu3BdL0t6S0L-19" value="" style="shape=cube;whiteSpace=wrap;html=1;boundedLbl=1;backgroundOutline=1;darkOpacity=0.05;darkOpacity2=0.1;" vertex="1" parent="1">
          <mxGeometry x="170" y="-20" width="490" height="760" as="geometry" />
        </mxCell>
        <mxCell id="QwmscEO_Eu3BdL0t6S0L-11" value="&lt;div align=&quot;left&quot;&gt;&lt;font style=&quot;font-size: 20px;&quot;&gt;&amp;nbsp; authenticated&lt;/font&gt;&lt;/div&gt;" style="rounded=0;whiteSpace=wrap;html=1;verticalAlign=top;align=left;" vertex="1" parent="1">
          <mxGeometry x="190" y="420" width="470" height="320" as="geometry" />
        </mxCell>
        <mxCell id="QwmscEO_Eu3BdL0t6S0L-10" value="&lt;div align=&quot;left&quot;&gt;&lt;font style=&quot;font-size: 18px;&quot;&gt;&amp;nbsp; unauthenticated&lt;/font&gt;&lt;/div&gt;" style="rounded=0;whiteSpace=wrap;html=1;verticalAlign=top;align=left;" vertex="1" parent="1">
          <mxGeometry x="190" y="80" width="470" height="340" as="geometry" />
        </mxCell>
        <mxCell id="Ht8Bc9fi52HaijCVLVB0-5" value="Body of any screen" style="shape=cube;whiteSpace=wrap;html=1;boundedLbl=1;backgroundOutline=1;darkOpacity=0.05;darkOpacity2=0.1;" parent="1" vertex="1">
          <mxGeometry x="220" y="480" width="420" height="240" as="geometry" />
        </mxCell>
        <mxCell id="Ht8Bc9fi52HaijCVLVB0-16" value="Header of any screen" style="rounded=0;whiteSpace=wrap;html=1;verticalAlign=top;" parent="1" vertex="1">
          <mxGeometry x="240" y="500" width="400" height="60" as="geometry" />
        </mxCell>
        <mxCell id="Ht8Bc9fi52HaijCVLVB0-2" value="" style="shape=cube;whiteSpace=wrap;html=1;boundedLbl=1;backgroundOutline=1;darkOpacity=0.05;darkOpacity2=0.1;" parent="1" vertex="1">
          <mxGeometry x="220" y="130" width="420" height="220" as="geometry" />
        </mxCell>
        <mxCell id="Ht8Bc9fi52HaijCVLVB0-3" value="Log in" style="text;html=1;align=left;verticalAlign=middle;whiteSpace=wrap;rounded=0;fontSize=16;" parent="1" vertex="1">
          <mxGeometry x="245" y="150" width="170" height="30" as="geometry" />
        </mxCell>
        <mxCell id="Ht8Bc9fi52HaijCVLVB0-7" value="Log in with Miscrosoft" style="rounded=0;whiteSpace=wrap;html=1;" parent="1" vertex="1">
          <mxGeometry x="335" y="290" width="170" height="40" as="geometry" />
        </mxCell>
        <mxCell id="Ht8Bc9fi52HaijCVLVB0-8" value="Logout" style="text;html=1;align=left;verticalAlign=middle;whiteSpace=wrap;rounded=0;fontSize=16;" parent="1" vertex="1">
          <mxGeometry x="250" y="500" width="170" height="30" as="geometry" />
        </mxCell>
        <mxCell id="Ht8Bc9fi52HaijCVLVB0-14" value="Log out with Microsoft" style="rounded=0;whiteSpace=wrap;html=1;" parent="1" vertex="1">
          <mxGeometry x="500" y="510" width="135" height="40" as="geometry" />
        </mxCell>
        <mxCell id="QwmscEO_Eu3BdL0t6S0L-2" value="" style="shape=cube;whiteSpace=wrap;html=1;boundedLbl=1;backgroundOutline=1;darkOpacity=0.05;darkOpacity2=0.1;verticalAlign=top;" vertex="1" parent="1">
          <mxGeometry x="680" y="-20" width="300" height="760" as="geometry" />
        </mxCell>
        <mxCell id="QwmscEO_Eu3BdL0t6S0L-4" value="Choose account to login" style="shape=cube;whiteSpace=wrap;html=1;boundedLbl=1;backgroundOutline=1;darkOpacity=0.05;darkOpacity2=0.1;" vertex="1" parent="1">
          <mxGeometry x="730" y="130" width="210" height="90" as="geometry" />
        </mxCell>
        <mxCell id="QwmscEO_Eu3BdL0t6S0L-5" value="Choose account to log out" style="shape=cube;whiteSpace=wrap;html=1;boundedLbl=1;backgroundOutline=1;darkOpacity=0.05;darkOpacity2=0.1;" vertex="1" parent="1">
          <mxGeometry x="725" y="490" width="210" height="100" as="geometry" />
        </mxCell>
        <mxCell id="QwmscEO_Eu3BdL0t6S0L-6" value="&lt;div&gt;Enter password&lt;/div&gt;" style="shape=cube;whiteSpace=wrap;html=1;boundedLbl=1;backgroundOutline=1;darkOpacity=0.05;darkOpacity2=0.1;" vertex="1" parent="1">
          <mxGeometry x="730" y="250" width="210" height="100" as="geometry" />
        </mxCell>
        <mxCell id="QwmscEO_Eu3BdL0t6S0L-9" value="&lt;font style=&quot;font-size: 18px;&quot;&gt;Microsoft Authentication service&lt;br&gt;&lt;/font&gt;" style="text;html=1;align=left;verticalAlign=middle;whiteSpace=wrap;rounded=0;fontSize=16;" vertex="1" parent="1">
          <mxGeometry x="710" width="300" height="30" as="geometry" />
        </mxCell>
        <mxCell id="QwmscEO_Eu3BdL0t6S0L-12" value="" style="endArrow=classic;html=1;rounded=0;exitX=1;exitY=0.5;exitDx=0;exitDy=0;entryX=0;entryY=0;entryDx=0;entryDy=35;entryPerimeter=0;fillColor=#dae8fc;strokeColor=#6c8ebf;" edge="1" parent="1" source="Ht8Bc9fi52HaijCVLVB0-7" target="QwmscEO_Eu3BdL0t6S0L-4">
          <mxGeometry width="50" height="50" relative="1" as="geometry">
            <mxPoint x="550" y="370" as="sourcePoint" />
            <mxPoint x="600" y="320" as="targetPoint" />
            <Array as="points">
              <mxPoint x="650" y="310" />
              <mxPoint x="650" y="165" />
            </Array>
          </mxGeometry>
        </mxCell>
        <mxCell id="QwmscEO_Eu3BdL0t6S0L-13" value="" style="endArrow=classic;html=1;rounded=0;exitX=0.482;exitY=0.996;exitDx=0;exitDy=0;entryX=0.482;entryY=0.008;entryDx=0;entryDy=0;entryPerimeter=0;fillColor=#dae8fc;strokeColor=#6c8ebf;exitPerimeter=0;" edge="1" parent="1" source="QwmscEO_Eu3BdL0t6S0L-4" target="QwmscEO_Eu3BdL0t6S0L-6">
          <mxGeometry width="50" height="50" relative="1" as="geometry">
            <mxPoint x="490" y="320" as="sourcePoint" />
            <mxPoint x="740" y="175" as="targetPoint" />
          </mxGeometry>
        </mxCell>
        <mxCell id="QwmscEO_Eu3BdL0t6S0L-14" value="" style="endArrow=classic;html=1;rounded=0;fillColor=#dae8fc;strokeColor=#6c8ebf;entryX=1;entryY=0.656;entryDx=0;entryDy=0;entryPerimeter=0;exitX=0;exitY=0;exitDx=210;exitDy=60;exitPerimeter=0;" edge="1" parent="1" source="QwmscEO_Eu3BdL0t6S0L-6" target="Ht8Bc9fi52HaijCVLVB0-5">
          <mxGeometry width="50" height="50" relative="1" as="geometry">
            <mxPoint x="849.38" y="380" as="sourcePoint" />
            <mxPoint x="850.38" y="440" as="targetPoint" />
            <Array as="points">
              <mxPoint x="960" y="310" />
              <mxPoint x="960" y="637" />
            </Array>
          </mxGeometry>
        </mxCell>
        <mxCell id="QwmscEO_Eu3BdL0t6S0L-17" value="" style="endArrow=classic;html=1;rounded=0;exitX=1;exitY=0.5;exitDx=0;exitDy=0;fillColor=#dae8fc;strokeColor=#6c8ebf;" edge="1" parent="1" source="Ht8Bc9fi52HaijCVLVB0-14">
          <mxGeometry width="50" height="50" relative="1" as="geometry">
            <mxPoint x="800" y="500" as="sourcePoint" />
            <mxPoint x="724" y="530" as="targetPoint" />
          </mxGeometry>
        </mxCell>
        <mxCell id="QwmscEO_Eu3BdL0t6S0L-18" value="" style="endArrow=classic;html=1;rounded=0;exitX=0.512;exitY=0.013;exitDx=0;exitDy=0;exitPerimeter=0;entryX=0;entryY=0;entryDx=220;entryDy=220;entryPerimeter=0;fillColor=#dae8fc;strokeColor=#6c8ebf;" edge="1" parent="1" source="QwmscEO_Eu3BdL0t6S0L-5" target="Ht8Bc9fi52HaijCVLVB0-2">
          <mxGeometry width="50" height="50" relative="1" as="geometry">
            <mxPoint x="710" y="360" as="sourcePoint" />
            <mxPoint x="760" y="310" as="targetPoint" />
            <Array as="points">
              <mxPoint x="833" y="380" />
              <mxPoint x="440" y="380" />
            </Array>
          </mxGeometry>
        </mxCell>
        <mxCell id="QwmscEO_Eu3BdL0t6S0L-20" value="&lt;font style=&quot;font-size: 18px;&quot;&gt;Asserberus&lt;/font&gt;" style="text;html=1;align=left;verticalAlign=middle;whiteSpace=wrap;rounded=0;fontSize=16;" vertex="1" parent="1">
          <mxGeometry x="200" width="300" height="30" as="geometry" />
        </mxCell>
      </root>
    </mxGraphModel>
  </diagram>
</mxfile>
